<?xml version="1.0" standalone="no"?>
<!DOCTYPE svg PUBLIC "-//W3C//DTD SVG 20010904//EN"
 "http://www.w3.org/TR/2001/REC-SVG-20010904/DTD/svg10.dtd">
<svg version="1.0" xmlns="http://www.w3.org/2000/svg"
 width="100.000000pt" height="100.000000pt" viewBox="0 0 100.000000 100.000000"
 preserveAspectRatio="xMidYMid meet">

<g transform="translate(0.000000,100.000000) scale(0.100000,-0.100000)"
fill="#000000" stroke="none">
<path d="M0 500 l0 -500 500 0 500 0 0 500 0 500 -500 0 -500 0 0 -500z m655
333 l137 -56 27 -61 c15 -34 42 -98 60 -144 l33 -82 -53 -133 c-30 -72 -61
-139 -69 -147 -8 -8 -75 -39 -148 -69 l-133 -54 -142 59 -142 59 -59 143 -59
142 59 142 59 143 135 57 c74 31 140 57 146 57 7 1 73 -24 149 -56z"/>
<path d="M398 772 c-59 -26 -112 -51 -117 -57 -14 -15 -91 -205 -91 -225 0
-22 78 -211 93 -227 7 -6 60 -31 119 -56 l108 -45 107 45 c60 25 113 50 120
56 7 7 32 60 56 120 l45 107 -45 108 c-24 59 -49 112 -56 119 -10 9 -183 86
-222 98 -5 2 -58 -18 -117 -43z m132 -164 l5 -107 59 -60 c39 -40 57 -65 53
-75 -11 -27 -27 -19 -101 51 l-71 67 4 110 c2 61 5 115 8 119 3 4 12 7 21 5
14 -3 18 -21 22 -110z"/>
</g>
</svg>
